NotoSansHanifiRohingya-Medium.ufo
<glyph name="guillemotleft" format="2">
	<unicode hex="00AB"/>
	<advance width="539"/>
	<outline>
		<contour>
			<point x="212" y="53" type="line"/>
			<point x="287" y="96" type="line"/>
			<point x="148" y="267" type="line"/>
			<point x="287" y="438" type="line"/>
			<point x="212" y="480" type="line"/>
			<point x="40" y="273" type="line"/>
			<point x="40" y="260" type="line"/>
		</contour>
		<contour>
			<point x="425" y="53" type="line"/>
			<point x="500" y="96" type="line"/>
			<point x="361" y="267" type="line"/>
			<point x="500" y="438" type="line"/>
			<point x="425" y="480" type="line"/>
			<point x="252" y="273" type="line"/>
			<point x="252" y="260" type="line"/>
		</contour>
	</outline>
</glyph>
<glyph name="guillemotright" format="2">
	<unicode hex="00BB"/>
	<advance width="539"/>
	<outline>
		<contour>
			<point x="114" y="53" type="line"/>
			<point x="286" y="260" type="line"/>
			<point x="286" y="273" type="line"/>
			<point x="114" y="480" type="line"/>
			<point x="39" y="438" type="line"/>
			<point x="178" y="267" type="line"/>
			<point x="39" y="96" type="line"/>
		</contour>
		<contour>
			<point x="326" y="53" type="line"/>
			<point x="499" y="260" type="line"/>
			<point x="499" y="273" type="line"/>
			<point x="326" y="480" type="line"/>
			<point x="251" y="438" type="line"/>
			<point x="390" y="267" type="line"/>
			<point x="251" y="96" type="line"/>
		</contour>
	</outline>
</glyph>
<glyph name="comma-ar" format="2">
	<unicode hex="060C"/>
	<advance width="294"/>
	<outline>
		<contour>
			<point x="72" y="0" type="line"/>
			<point x="180" y="0" type="line"/>
			<point x="193" y="78"/>
			<point x="209" y="159"/>
			<point x="229" y="245" type="curve"/>
			<point x="151" y="245" type="line"/>
			<point x="113" y="160"/>
			<point x="84" y="81"/>
			<point x="65" y="11" type="curve"/>
		</contour>
	</outline>
</glyph>
<glyph name="question-ar" format="2">
	<unicode hex="061F"/>
	<advance width="513"/>
	<outline>
		<contour>
			<point x="256" y="211" type="line"/>
			<point x="343" y="211" type="line"/>
			<point x="343" y="241" type="line" smooth="yes"/>
			<point x="343" y="312"/>
			<point x="323" y="353"/>
			<point x="258" y="407" type="curve" smooth="yes"/>
			<point x="186" y="466"/>
			<point x="165" y="490"/>
			<point x="165" y="545" type="curve" smooth="yes"/>
			<point x="165" y="602"/>
			<point x="204" y="635"/>
			<point x="273" y="635" type="curve" smooth="yes"/>
			<point x="331" y="635"/>
			<point x="379" y="616"/>
			<point x="431" y="591" type="curve"/>
			<point x="468" y="672" type="line"/>
			<point x="411" y="702"/>
			<point x="343" y="724"/>
			<point x="269" y="724" type="curve" smooth="yes"/>
			<point x="140" y="724"/>
			<point x="65" y="657"/>
			<point x="65" y="548" type="curve" smooth="yes"/>
			<point x="65" y="463"/>
			<point x="105" y="421"/>
			<point x="180" y="360" type="curve" smooth="yes"/>
			<point x="244" y="308"/>
			<point x="256" y="284"/>
			<point x="256" y="232" type="curve" smooth="yes"/>
		</contour>
		<contour>
			<point x="295" y="-14" type="curve" smooth="yes"/>
			<point x="336" y="-14"/>
			<point x="364" y="9"/>
			<point x="364" y="59" type="curve" smooth="yes"/>
			<point x="364" y="109"/>
			<point x="337" y="130"/>
			<point x="295" y="130" type="curve" smooth="yes"/>
			<point x="256" y="130"/>
			<point x="227" y="108"/>
			<point x="227" y="59" type="curve" smooth="yes"/>
			<point x="227" y="9"/>
			<point x="256" y="-14"/>
		</contour>
	</outline>
</glyph>
<glyph name="kashida-ar" format="2">
	<unicode hex="0640"/>
	<advance width="250"/>
	<outline>
		<contour>
			<point x="-34" y="19" type="line"/>
			<point x="-17" y="9"/>
			<point x="22" y="0"/>
			<point x="45" y="0" type="curve" smooth="yes"/>
			<point x="293" y="0" type="line"/>
			<point x="293" y="90" type="line"/>
			<point x="-34" y="90" type="line"/>
		</contour>
	</outline>
</glyph>
<glyph name="zero-ar" format="2">
	<unicode hex="0660"/>
	<advance width="308"/>
	<outline>
		<contour>
			<point x="154" y="255" type="curve" smooth="yes"/>
			<point x="197" y="255"/>
			<point x="224" y="283"/>
			<point x="224" y="329" type="curve" smooth="yes"/>
			<point x="224" y="375"/>
			<point x="197" y="404"/>
			<point x="154" y="404" type="curve" smooth="yes"/>
			<point x="110" y="404"/>
			<point x="84" y="376"/>
			<point x="84" y="329" type="curve" smooth="yes"/>
			<point x="84" y="282"/>
			<point x="110" y="255"/>
		</contour>
	</outline>
</glyph>
<glyph name="fullstop-fa.urdu" format="2">
	<unicode hex="06D4"/>
	<advance width="267"/>
	<outline>
		<contour>
			<point x="133" y="-10" type="curve" smooth="yes"/>
			<point x="172" y="-10"/>
			<point x="202" y="13"/>
			<point x="202" y="62" type="curve" smooth="yes"/>
			<point x="202" y="112"/>
			<point x="173" y="134"/>
			<point x="133" y="134" type="curve" smooth="yes"/>
			<point x="93" y="134"/>
			<point x="65" y="112"/>
			<point x="65" y="62" type="curve" smooth="yes"/>
			<point x="65" y="13"/>
			<point x="93" y="-10"/>
		</contour>
	</outline>
</glyph>
<glyph name="ma-rohg" format="2">
	<unicode hex="10D14"/>
	<advance width="747"/>
	<outline>
		<contour>
			<point x="279" y="0" type="curve" smooth="yes"/>
			<point x="347" y="0"/>
			<point x="397" y="28"/>
			<point x="432" y="79" type="curve"/>
			<point x="460" y="172" type="line" smooth="yes"/>
			<point x="486" y="256"/>
			<point x="508" y="285"/>
			<point x="546" y="285" type="curve" smooth="yes"/>
			<point x="590" y="285"/>
			<point x="616" y="249"/>
			<point x="616" y="188" type="curve" smooth="yes"/>
			<point x="616" y="123"/>
			<point x="589" y="89"/>
			<point x="539" y="89" type="curve" smooth="yes"/>
			<point x="492" y="89"/>
			<point x="454" y="113"/>
			<point x="432" y="158" type="curve"/>
			<point x="390" y="65" type="line"/>
			<point x="442" y="17"/>
			<point x="483" y="0"/>
			<point x="543" y="0" type="curve" smooth="yes"/>
			<point x="655" y="0"/>
			<point x="717" y="67"/>
			<point x="717" y="187" type="curve" smooth="yes"/>
			<point x="717" y="302"/>
			<point x="653" y="374"/>
			<point x="548" y="374" type="curve" smooth="yes"/>
			<point x="459" y="374"/>
			<point x="408" y="326"/>
			<point x="372" y="208" type="curve" smooth="yes"/>
			<point x="360" y="170" type="line" smooth="yes"/>
			<point x="346" y="125"/>
			<point x="327" y="90"/>
			<point x="283" y="90" type="curve" smooth="yes"/>
			<point x="242" y="90"/>
			<point x="223" y="123"/>
			<point x="223" y="178" type="curve" smooth="yes"/>
			<point x="223" y="445" type="line"/>
			<point x="219" y="455" type="line"/>
			<point x="219" y="567" type="line" smooth="yes"/>
			<point x="219" y="613"/>
			<point x="241" y="640"/>
			<point x="277" y="640" type="curve" smooth="yes"/>
			<point x="311" y="640"/>
			<point x="330" y="614"/>
			<point x="330" y="580" type="curve" smooth="yes"/>
			<point x="330" y="538"/>
			<point x="300" y="513"/>
			<point x="249" y="513" type="curve" smooth="yes"/>
			<point x="155" y="513" type="line"/>
			<point x="145" y="517" type="line"/>
			<point x="10" y="517" type="line"/>
			<point x="10" y="430" type="line"/>
			<point x="251" y="430" type="line" smooth="yes"/>
			<point x="356" y="430"/>
			<point x="428" y="491"/>
			<point x="428" y="581" type="curve" smooth="yes"/>
			<point x="428" y="664"/>
			<point x="366" y="724"/>
			<point x="277" y="724" type="curve" smooth="yes"/>
			<point x="184" y="724"/>
			<point x="117" y="658"/>
			<point x="117" y="564" type="curve" smooth="yes"/>
			<point x="117" y="178" type="line" smooth="yes"/>
			<point x="117" y="62"/>
			<point x="171" y="0"/>
		</contour>
	</outline>
	<anchor name="top" x="451" y="714"/>
</glyph>
<glyph name="sakin-rohg" format="2">
	<unicode hex="10D22"/>
	<advance width="381"/>
	<outline>
		<contour>
			<point x="10" y="19" type="line"/>
			<point x="27" y="9"/>
			<point x="67" y="0"/>
			<point x="90" y="0" type="curve" smooth="yes"/>
			<point x="103" y="0" type="line" smooth="yes"/>
			<point x="231" y="0"/>
			<point x="301" y="89"/>
			<point x="301" y="255" type="curve" smooth="yes"/>
			<point x="301" y="329" type="line"/>
			<point x="195" y="329" type="line"/>
			<point x="195" y="256" type="line" smooth="yes"/>
			<point x="195" y="140"/>
			<point x="160" y="90"/>
			<point x="78" y="90" type="curve" smooth="yes"/>
			<point x="10" y="90" type="line"/>
		</contour>
	</outline>
	<anchor name="top" x="248" y="714"/>
</glyph>
<glyph name="harbahay-rohg" format="2">
	<unicode hex="10D24"/>
	<outline>
		<contour>
			<point x="5" y="892" type="curve" smooth="yes"/>
			<point x="67" y="892"/>
			<point x="115" y="930"/>
			<point x="115" y="1002" type="curve" smooth="yes"/>
			<point x="115" y="1082" type="line"/>
			<point x="39" y="1082" type="line"/>
			<point x="39" y="1006" type="line" smooth="yes"/>
			<point x="39" y="980"/>
			<point x="23" y="961"/>
			<point x="-7" y="961" type="curve" smooth="yes"/>
			<point x="-35" y="961"/>
			<point x="-48" y="974"/>
			<point x="-58" y="992" type="curve"/>
			<point x="-81" y="928" type="line"/>
			<point x="-66" y="908"/>
			<point x="-33" y="892"/>
		</contour>
		<contour>
			<point x="-115" y="802" type="line"/>
			<point x="-39" y="802" type="line"/>
			<point x="-39" y="1082" type="line"/>
			<point x="-115" y="1082" type="line"/>
		</contour>
	</outline>
	<anchor name="_top" x="0" y="714"/>
	<anchor name="top" x="0" y="1089"/>
</glyph>
<glyph name="tahala-rohg" format="2">
	<unicode hex="10D25"/>
	<outline>
		<contour>
			<point x="-40" y="791" type="line"/>
			<point x="-12" y="802" type="line" smooth="yes"/>
			<point x="36" y="821"/>
			<point x="62" y="850"/>
			<point x="62" y="886" type="curve" smooth="yes"/>
			<point x="62" y="905"/>
			<point x="56" y="925"/>
			<point x="44" y="945" type="curve" smooth="yes"/>
			<point x="28" y="973" type="line" smooth="yes"/>
			<point x="24" y="980"/>
			<point x="22" y="986"/>
			<point x="22" y="992" type="curve" smooth="yes"/>
			<point x="22" y="1003"/>
			<point x="28" y="1009"/>
			<point x="44" y="1015" type="curve" smooth="yes"/>
			<point x="71" y="1025" type="line"/>
			<point x="41" y="1093" type="line"/>
			<point x="13" y="1082" type="line" smooth="yes"/>
			<point x="-36" y="1063"/>
			<point x="-61" y="1034"/>
			<point x="-61" y="998" type="curve" smooth="yes"/>
			<point x="-61" y="980"/>
			<point x="-55" y="958"/>
			<point x="-43" y="939" type="curve" smooth="yes"/>
			<point x="-27" y="911" type="line" smooth="yes"/>
			<point x="-23" y="904"/>
			<point x="-21" y="898"/>
			<point x="-21" y="892" type="curve" smooth="yes"/>
			<point x="-21" y="882"/>
			<point x="-27" y="875"/>
			<point x="-43" y="869" type="curve" smooth="yes"/>
			<point x="-70" y="858" type="line"/>
		</contour>
	</outline>
	<anchor name="_top" x="0" y="714"/>
	<anchor name="top" x="0" y="1079"/>
</glyph>
<glyph name="tana-rohg" format="2">
	<unicode hex="10D26"/>
	<outline>
		<contour>
			<point x="-148" y="858" type="line"/>
			<point x="-124" y="895"/>
			<point x="-101" y="920"/>
			<point x="-61" y="920" type="curve" smooth="yes"/>
			<point x="-44" y="920"/>
			<point x="-28" y="916"/>
			<point x="-6" y="909" type="curve" smooth="yes"/>
			<point x="18" y="902"/>
			<point x="39" y="897"/>
			<point x="67" y="897" type="curve" smooth="yes"/>
			<point x="140" y="897"/>
			<point x="184" y="940"/>
			<point x="214" y="1023" type="curve"/>
			<point x="140" y="1050" type="line"/>
			<point x="120" y="1004"/>
			<point x="105" y="978"/>
			<point x="63" y="978" type="curve" smooth="yes"/>
			<point x="42" y="978"/>
			<point x="25" y="981"/>
			<point x="2" y="988" type="curve" smooth="yes"/>
			<point x="-21" y="995"/>
			<point x="-41" y="1000"/>
			<point x="-67" y="1000" type="curve" smooth="yes"/>
			<point x="-132" y="1000"/>
			<point x="-180" y="958"/>
			<point x="-214" y="901" type="curve"/>
		</contour>
	</outline>
	<anchor name="_top" x="0" y="714"/>
	<anchor name="top" x="0" y="1003"/>
</glyph>
<glyph name="tassi-rohg" format="2">
	<unicode hex="10D27"/>
	<outline>
		<contour>
			<point x="-83" y="824" type="curve" smooth="yes"/>
			<point x="-35" y="824"/>
			<point x="-2" y="848"/>
			<point x="20" y="905" type="curve"/>
			<point x="-16" y="905" type="line"/>
			<point x="3" y="849"/>
			<point x="36" y="824"/>
			<point x="84" y="824" type="curve" smooth="yes"/>
			<point x="135" y="824"/>
			<point x="185" y="859"/>
			<point x="185" y="933" type="curve" smooth="yes"/>
			<point x="185" y="1042" type="line"/>
			<point x="109" y="1042" type="line"/>
			<point x="109" y="938" type="line" smooth="yes"/>
			<point x="109" y="905"/>
			<point x="94" y="893"/>
			<point x="73" y="893" type="curve" smooth="yes"/>
			<point x="52" y="893"/>
			<point x="37" y="905"/>
			<point x="37" y="938" type="curve" smooth="yes"/>
			<point x="37" y="1002" type="line"/>
			<point x="-36" y="1002" type="line"/>
			<point x="-36" y="938" type="line" smooth="yes"/>
			<point x="-36" y="905"/>
			<point x="-51" y="893"/>
			<point x="-72" y="893" type="curve" smooth="yes"/>
			<point x="-93" y="893"/>
			<point x="-108" y="905"/>
			<point x="-108" y="938" type="curve" smooth="yes"/>
			<point x="-108" y="1042" type="line"/>
			<point x="-184" y="1042" type="line"/>
			<point x="-184" y="933" type="line" smooth="yes"/>
			<point x="-184" y="859"/>
			<point x="-134" y="824"/>
		</contour>
	</outline>
	<anchor name="_top" x="0" y="714"/>
	<anchor name="top" x="0" y="1019"/>
</glyph>
<glyph name="zero-rohg" format="2">
	<unicode hex="10D30"/>
	<advance width="577"/>
	<outline>
		<contour>
			<point x="289" y="-10" type="curve" smooth="yes"/>
			<point x="439" y="-10"/>
			<point x="512" y="111"/>
			<point x="512" y="357" type="curve" smooth="yes"/>
			<point x="512" y="603"/>
			<point x="439" y="724"/>
			<point x="289" y="724" type="curve" smooth="yes"/>
			<point x="139" y="724"/>
			<point x="65" y="603"/>
			<point x="65" y="357" type="curve" smooth="yes"/>
			<point x="65" y="111"/>
			<point x="139" y="-10"/>
		</contour>
		<contour>
			<point x="289" y="80" type="curve" smooth="yes"/>
			<point x="205" y="80"/>
			<point x="171" y="161"/>
			<point x="171" y="357" type="curve" smooth="yes"/>
			<point x="171" y="553"/>
			<point x="205" y="634"/>
			<point x="289" y="634" type="curve" smooth="yes"/>
			<point x="372" y="634"/>
			<point x="406" y="553"/>
			<point x="406" y="357" type="curve" smooth="yes"/>
			<point x="406" y="161"/>
			<point x="372" y="80"/>
		</contour>
	</outline>
</glyph>
<glyph name="one-rohg" format="2">
	<unicode hex="10D31"/>
	<advance width="306"/>
	<outline>
		<contour>
			<point x="100" y="0" type="line"/>
			<point x="206" y="0" type="line"/>
			<point x="206" y="714" type="line"/>
			<point x="100" y="714" type="line"/>
		</contour>
	</outline>
</glyph>
<glyph name="two-rohg" format="2">
	<unicode hex="10D32"/>
	<advance width="539"/>
	<outline>
		<contour>
			<point x="377" y="-14" type="line"/>
			<point x="442" y="150"/>
			<point x="474" y="290"/>
			<point x="474" y="409" type="curve" smooth="yes"/>
			<point x="474" y="611"/>
			<point x="387" y="724"/>
			<point x="232" y="724" type="curve" smooth="yes"/>
			<point x="110" y="724"/>
			<point x="20" y="642"/>
			<point x="20" y="532" type="curve" smooth="yes"/>
			<point x="20" y="424"/>
			<point x="105" y="349"/>
			<point x="229" y="349" type="curve" smooth="yes"/>
			<point x="259" y="349" type="line"/>
			<point x="259" y="439" type="line"/>
			<point x="233" y="439" type="line" smooth="yes"/>
			<point x="168" y="439"/>
			<point x="125" y="476"/>
			<point x="125" y="532" type="curve" smooth="yes"/>
			<point x="125" y="591"/>
			<point x="169" y="634"/>
			<point x="230" y="634" type="curve" smooth="yes"/>
			<point x="319" y="634"/>
			<point x="368" y="554"/>
			<point x="368" y="410" type="curve" smooth="yes"/>
			<point x="368" y="304"/>
			<point x="339" y="184"/>
			<point x="272" y="18" type="curve"/>
		</contour>
	</outline>
</glyph>
<glyph name="three-rohg" format="2">
	<unicode hex="10D33"/>
	<advance width="622"/>
	<outline>
		<contour>
			<point x="299" y="-10" type="curve" smooth="yes"/>
			<point x="463" y="-10"/>
			<point x="567" y="89"/>
			<point x="567" y="246" type="curve" smooth="yes"/>
			<point x="567" y="377"/>
			<point x="499" y="468"/>
			<point x="310" y="587" type="curve" smooth="yes"/>
			<point x="261" y="619" type="line"/>
			<point x="261" y="624" type="line"/>
			<point x="543" y="624" type="line"/>
			<point x="543" y="714" type="line"/>
			<point x="76" y="714" type="line"/>
			<point x="76" y="639" type="line"/>
			<point x="253" y="523" type="line" smooth="yes"/>
			<point x="405" y="423"/>
			<point x="461" y="348"/>
			<point x="461" y="247" type="curve" smooth="yes"/>
			<point x="461" y="142"/>
			<point x="401" y="80"/>
			<point x="296" y="80" type="curve" smooth="yes"/>
			<point x="210" y="80"/>
			<point x="151" y="126"/>
			<point x="151" y="190" type="curve" smooth="yes"/>
			<point x="151" y="244"/>
			<point x="194" y="282"/>
			<point x="257" y="282" type="curve" smooth="yes"/>
			<point x="305" y="282" type="line"/>
			<point x="305" y="372" type="line"/>
			<point x="257" y="372" type="line" smooth="yes"/>
			<point x="134" y="372"/>
			<point x="45" y="297"/>
			<point x="45" y="192" type="curve" smooth="yes"/>
			<point x="45" y="74"/>
			<point x="150" y="-10"/>
		</contour>
	</outline>
</glyph>
<glyph name="four-rohg" format="2">
	<unicode hex="10D34"/>
	<advance width="739"/>
	<outline>
		<contour>
			<point x="253" y="-10" type="curve" smooth="yes"/>
			<point x="362" y="-10"/>
			<point x="424" y="58"/>
			<point x="424" y="177" type="curve" smooth="yes"/>
			<point x="424" y="210" type="line"/>
			<point x="327" y="210" type="line"/>
			<point x="327" y="177" type="line" smooth="yes"/>
			<point x="327" y="111"/>
			<point x="302" y="78"/>
			<point x="254" y="78" type="curve" smooth="yes"/>
			<point x="195" y="78"/>
			<point x="172" y="133"/>
			<point x="172" y="271" type="curve" smooth="yes"/>
			<point x="172" y="330" type="line" smooth="yes"/>
			<point x="172" y="495"/>
			<point x="214" y="576"/>
			<point x="301" y="576" type="curve" smooth="yes"/>
			<point x="433" y="576"/>
			<point x="533" y="381"/>
			<point x="533" y="127" type="curve" smooth="yes"/>
			<point x="533" y="0" type="line"/>
			<point x="639" y="0" type="line"/>
			<point x="639" y="714" type="line"/>
			<point x="538" y="714" type="line"/>
			<point x="538" y="480" type="line"/>
			<point x="532" y="480" type="line"/>
			<point x="484" y="600"/>
			<point x="400" y="666"/>
			<point x="295" y="666" type="curve" smooth="yes"/>
			<point x="143" y="666"/>
			<point x="65" y="552"/>
			<point x="65" y="329" type="curve" smooth="yes"/>
			<point x="65" y="270" type="line" smooth="yes"/>
			<point x="65" y="81"/>
			<point x="127" y="-10"/>
		</contour>
	</outline>
</glyph>
<glyph name="five-rohg" format="2">
	<unicode hex="10D35"/>
	<advance width="789"/>
	<outline>
		<contour>
			<point x="610" y="0" type="line"/>
			<point x="610" y="90" type="line"/>
			<point x="465" y="90" type="line"/>
			<point x="498" y="53" type="line"/>
			<point x="498" y="113" type="line" smooth="yes"/>
			<point x="498" y="283"/>
			<point x="522" y="328"/>
			<point x="651" y="410" type="curve" smooth="yes"/>
			<point x="670" y="423" type="line" smooth="yes"/>
			<point x="735" y="463"/>
			<point x="764" y="507"/>
			<point x="764" y="563" type="curve" smooth="yes"/>
			<point x="764" y="636"/>
			<point x="704" y="691"/>
			<point x="624" y="691" type="curve" smooth="yes"/>
			<point x="543" y="691"/>
			<point x="479" y="633"/>
			<point x="479" y="559" type="curve" smooth="yes"/>
			<point x="479" y="497"/>
			<point x="524" y="447"/>
			<point x="590" y="437" type="curve"/>
			<point x="571" y="462" type="line"/>
			<point x="439" y="388"/>
			<point x="392" y="297"/>
			<point x="392" y="113" type="curve" smooth="yes"/>
			<point x="392" y="55" type="line"/>
			<point x="432" y="90" type="line"/>
			<point x="399" y="90" type="line" smooth="yes"/>
			<point x="263" y="90"/>
			<point x="171" y="195"/>
			<point x="171" y="349" type="curve" smooth="yes"/>
			<point x="171" y="485"/>
			<point x="238" y="583"/>
			<point x="379" y="656" type="curve"/>
			<point x="328" y="738" type="line"/>
			<point x="158" y="650"/>
			<point x="65" y="515"/>
			<point x="65" y="351" type="curve" smooth="yes"/>
			<point x="65" y="148"/>
			<point x="203" y="0"/>
			<point x="392" y="0" type="curve" smooth="yes"/>
		</contour>
		<contour>
			<point x="622" y="504" type="curve" smooth="yes"/>
			<point x="591" y="504"/>
			<point x="570" y="525"/>
			<point x="570" y="555" type="curve" smooth="yes"/>
			<point x="570" y="587"/>
			<point x="592" y="610"/>
			<point x="622" y="610" type="curve" smooth="yes"/>
			<point x="652" y="610"/>
			<point x="674" y="586"/>
			<point x="674" y="556" type="curve" smooth="yes"/>
			<point x="674" y="526"/>
			<point x="652" y="504"/>
		</contour>
	</outline>
</glyph>
<glyph name="six-rohg" format="2">
	<unicode hex="10D36"/>
	<advance width="661"/>
	<outline>
		<contour>
			<point x="304" y="-10" type="curve" smooth="yes"/>
			<point x="480" y="-10"/>
			<point x="581" y="112"/>
			<point x="581" y="329" type="curve" smooth="yes"/>
			<point x="581" y="714" type="line"/>
			<point x="121" y="714" type="line"/>
			<point x="121" y="624" type="line"/>
			<point x="475" y="624" type="line"/>
			<point x="475" y="329" type="line" smooth="yes"/>
			<point x="475" y="168"/>
			<point x="414" y="80"/>
			<point x="303" y="80" type="curve" smooth="yes"/>
			<point x="215" y="80"/>
			<point x="156" y="131"/>
			<point x="156" y="205" type="curve" smooth="yes"/>
			<point x="156" y="279"/>
			<point x="210" y="323"/>
			<point x="300" y="323" type="curve" smooth="yes"/>
			<point x="369" y="323" type="line"/>
			<point x="369" y="413" type="line"/>
			<point x="300" y="413" type="line" smooth="yes"/>
			<point x="148" y="413"/>
			<point x="50" y="331"/>
			<point x="50" y="204" type="curve" smooth="yes"/>
			<point x="50" y="78"/>
			<point x="154" y="-10"/>
		</contour>
	</outline>
</glyph>
<glyph name="seven-rohg" format="2">
	<unicode hex="10D37"/>
	<advance width="688"/>
	<outline>
		<contour>
			<point x="138" y="-10" type="curve" smooth="yes"/>
			<point x="202" y="-10"/>
			<point x="240" y="15"/>
			<point x="288" y="89" type="curve" smooth="yes"/>
			<point x="646" y="637" type="line"/>
			<point x="646" y="714" type="line"/>
			<point x="147" y="714" type="line"/>
			<point x="147" y="624" type="line"/>
			<point x="590" y="624" type="line"/>
			<point x="555" y="669" type="line"/>
			<point x="226" y="165" type="line"/>
			<point x="229" y="93" type="line"/>
			<point x="300" y="40" type="line" smooth="yes"/>
			<point x="343" y="7"/>
			<point x="402" y="-10"/>
			<point x="469" y="-10" type="curve" smooth="yes"/>
			<point x="550" y="-10"/>
			<point x="611" y="17"/>
			<point x="663" y="74" type="curve"/>
			<point x="609" y="143" type="line"/>
			<point x="564" y="99"/>
			<point x="519" y="80"/>
			<point x="466" y="80" type="curve" smooth="yes"/>
			<point x="426" y="80"/>
			<point x="387" y="92"/>
			<point x="352" y="115" type="curve" smooth="yes"/>
			<point x="302" y="150" type="line"/>
			<point x="266" y="161" type="line"/>
			<point x="256" y="217"/>
			<point x="203" y="254"/>
			<point x="140" y="254" type="curve" smooth="yes"/>
			<point x="62" y="254"/>
			<point x="0" y="196"/>
			<point x="0" y="120" type="curve" smooth="yes"/>
			<point x="0" y="46"/>
			<point x="59" y="-10"/>
		</contour>
		<contour>
			<point x="144" y="69" type="curve" smooth="yes"/>
			<point x="113" y="69"/>
			<point x="91" y="90"/>
			<point x="91" y="121" type="curve" smooth="yes"/>
			<point x="91" y="152"/>
			<point x="114" y="175"/>
			<point x="144" y="175" type="curve" smooth="yes"/>
			<point x="174" y="175"/>
			<point x="196" y="151"/>
			<point x="196" y="121" type="curve" smooth="yes"/>
			<point x="196" y="91"/>
			<point x="174" y="69"/>
		</contour>
	</outline>
</glyph>
<glyph name="eight-rohg" format="2">
	<unicode hex="10D38"/>
	<advance width="739"/>
	<outline>
		<contour>
			<point x="100" y="0" type="line"/>
			<point x="206" y="0" type="line"/>
			<point x="206" y="127" type="line" smooth="yes"/>
			<point x="206" y="381"/>
			<point x="307" y="576"/>
			<point x="438" y="576" type="curve" smooth="yes"/>
			<point x="525" y="576"/>
			<point x="568" y="495"/>
			<point x="568" y="330" type="curve" smooth="yes"/>
			<point x="568" y="271" type="line" smooth="yes"/>
			<point x="568" y="133"/>
			<point x="544" y="78"/>
			<point x="485" y="78" type="curve" smooth="yes"/>
			<point x="437" y="78"/>
			<point x="413" y="111"/>
			<point x="413" y="177" type="curve" smooth="yes"/>
			<point x="413" y="210" type="line"/>
			<point x="315" y="210" type="line"/>
			<point x="315" y="177" type="line" smooth="yes"/>
			<point x="315" y="58"/>
			<point x="378" y="-10"/>
			<point x="486" y="-10" type="curve" smooth="yes"/>
			<point x="613" y="-10"/>
			<point x="674" y="81"/>
			<point x="674" y="270" type="curve" smooth="yes"/>
			<point x="674" y="329" type="line" smooth="yes"/>
			<point x="674" y="552"/>
			<point x="596" y="666"/>
			<point x="445" y="666" type="curve" smooth="yes"/>
			<point x="340" y="666"/>
			<point x="256" y="600"/>
			<point x="207" y="480" type="curve"/>
			<point x="201" y="480" type="line"/>
			<point x="201" y="714" type="line"/>
			<point x="100" y="714" type="line"/>
		</contour>
	</outline>
</glyph>
<glyph name="nine-rohg" format="2">
	<unicode hex="10D39"/>
	<advance width="602"/>
	<outline>
		<contour>
			<point x="293" y="0" type="line"/>
			<point x="386" y="0" type="line"/>
			<point x="592" y="218" type="line"/>
			<point x="520" y="281" type="line"/>
			<point x="446" y="197" type="line" smooth="yes"/>
			<point x="419" y="167"/>
			<point x="404" y="149"/>
			<point x="395" y="137" type="curve"/>
			<point x="398" y="154"/>
			<point x="399" y="181"/>
			<point x="399" y="228" type="curve" smooth="yes"/>
			<point x="399" y="539" type="line" smooth="yes"/>
			<point x="399" y="650"/>
			<point x="328" y="724"/>
			<point x="224" y="724" type="curve" smooth="yes"/>
			<point x="105" y="724"/>
			<point x="35" y="644"/>
			<point x="35" y="508" type="curve" smooth="yes"/>
			<point x="35" y="459" type="line" smooth="yes"/>
			<point x="35" y="342"/>
			<point x="103" y="263"/>
			<point x="203" y="263" type="curve" smooth="yes"/>
			<point x="252" y="263"/>
			<point x="287" y="280"/>
			<point x="312" y="316" type="curve"/>
			<point x="293" y="311" type="line"/>
		</contour>
		<contour>
			<point x="216" y="350" type="curve" smooth="yes"/>
			<point x="167" y="350"/>
			<point x="138" y="391"/>
			<point x="138" y="459" type="curve" smooth="yes"/>
			<point x="138" y="508" type="line" smooth="yes"/>
			<point x="138" y="592"/>
			<point x="165" y="635"/>
			<point x="220" y="635" type="curve" smooth="yes"/>
			<point x="266" y="635"/>
			<point x="296" y="596"/>
			<point x="296" y="538" type="curve" smooth="yes"/>
			<point x="296" y="445" type="line" smooth="yes"/>
			<point x="296" y="388"/>
			<point x="265" y="350"/>
		</contour>
	</outline>
</glyph>
<glyph name="a-rohg.init" format="2">
	<advance width="508"/>
	<outline>
		<contour>
			<point x="-35" y="19" type="line"/>
			<point x="-18" y="9"/>
			<point x="22" y="0"/>
			<point x="45" y="0" type="curve" smooth="yes"/>
			<point x="132" y="0" type="line" smooth="yes"/>
			<point x="322" y="0"/>
			<point x="428" y="101"/>
			<point x="428" y="285" type="curve" smooth="yes"/>
			<point x="428" y="556" type="line" smooth="yes"/>
			<point x="428" y="662"/>
			<point x="372" y="724"/>
			<point x="279" y="724" type="curve" smooth="yes"/>
			<point x="187" y="724"/>
			<point x="130" y="661"/>
			<point x="130" y="558" type="curve" smooth="yes"/>
			<point x="130" y="205" type="line" smooth="yes"/>
			<point x="130" y="150"/>
			<point x="146" y="103"/>
			<point x="177" y="69" type="curve"/>
			<point x="263" y="105" type="line"/>
			<point x="243" y="129"/>
			<point x="233" y="164"/>
			<point x="233" y="205" type="curve" smooth="yes"/>
			<point x="233" y="558" type="line" smooth="yes"/>
			<point x="233" y="610"/>
			<point x="248" y="634"/>
			<point x="278" y="634" type="curve" smooth="yes"/>
			<point x="308" y="634"/>
			<point x="322" y="610"/>
			<point x="322" y="558" type="curve" smooth="yes"/>
			<point x="322" y="286" type="line" smooth="yes"/>
			<point x="322" y="156"/>
			<point x="260" y="90"/>
			<point x="140" y="90" type="curve" smooth="yes"/>
			<point x="-35" y="90" type="line"/>
		</contour>
	</outline>
	<anchor name="top" x="279" y="714"/>
</glyph>
<glyph name="avowel-rohg.init" format="2">
	<advance width="543"/>
	<outline>
		<contour>
			<point x="-35" y="19" type="line"/>
			<point x="-18" y="9"/>
			<point x="22" y="0"/>
			<point x="45" y="0" type="curve" smooth="yes"/>
			<point x="292" y="0" type="line" smooth="yes"/>
			<point x="420" y="0"/>
			<point x="498" y="65"/>
			<point x="498" y="171" type="curve" smooth="yes"/>
			<point x="498" y="263"/>
			<point x="430" y="329"/>
			<point x="334" y="329" type="curve" smooth="yes"/>
			<point x="257" y="329"/>
			<point x="202" y="293"/>
			<point x="123" y="196" type="curve" smooth="yes"/>
			<point x="24" y="74" type="line"/>
			<point x="143" y="74" type="line"/>
			<point x="213" y="160" type="line" smooth="yes"/>
			<point x="260" y="217"/>
			<point x="288" y="239"/>
			<point x="328" y="239" type="curve" smooth="yes"/>
			<point x="366" y="239"/>
			<point x="392" y="211"/>
			<point x="392" y="169" type="curve" smooth="yes"/>
			<point x="392" y="116"/>
			<point x="357" y="90"/>
			<point x="288" y="90" type="curve" smooth="yes"/>
			<point x="-35" y="90" type="line"/>
		</contour>
	</outline>
	<anchor name="top" x="259" y="714"/>
</glyph>
<glyph name="ba-rohg.init" format="2">
	<advance width="406"/>
	<outline>
		<contour>
			<point x="-35" y="19" type="line"/>
			<point x="-18" y="9"/>
			<point x="22" y="0"/>
			<point x="45" y="0" type="curve" smooth="yes"/>
			<point x="75" y="0" type="line" smooth="yes"/>
			<point x="237" y="0"/>
			<point x="326" y="101"/>
			<point x="326" y="285" type="curve" smooth="yes"/>
			<point x="326" y="591" type="line" smooth="yes"/>
			<point x="326" y="670"/>
			<point x="281" y="714"/>
			<point x="201" y="714" type="curve" smooth="yes"/>
			<point x="71" y="714" type="line"/>
			<point x="71" y="624" type="line"/>
			<point x="178" y="624" type="line" smooth="yes"/>
			<point x="205" y="624"/>
			<point x="220" y="608"/>
			<point x="220" y="583" type="curve" smooth="yes"/>
			<point x="220" y="286" type="line" smooth="yes"/>
			<point x="220" y="155"/>
			<point x="169" y="90"/>
			<point x="65" y="90" type="curve" smooth="yes"/>
			<point x="-35" y="90" type="line"/>
		</contour>
	</outline>
	<anchor name="top" x="190" y="714"/>
</glyph>
<glyph name="ca-rohg.init" format="2">
	<advance width="594"/>
	<outline>
		<contour>
			<point x="318" y="0" type="curve" smooth="yes"/>
			<point x="445" y="0"/>
			<point x="514" y="74"/>
			<point x="514" y="209" type="curve" smooth="yes"/>
			<point x="514" y="714" type="line"/>
			<point x="408" y="714" type="line"/>
			<point x="408" y="211" type="line" smooth="yes"/>
			<point x="408" y="129"/>
			<point x="374" y="90"/>
			<point x="304" y="90" type="curve" smooth="yes"/>
			<point x="255" y="90"/>
			<point x="213" y="104"/>
			<point x="163" y="137" type="curve"/>
			<point x="117" y="67" type="line"/>
			<point x="184" y="20"/>
			<point x="242" y="0"/>
		</contour>
		<contour>
			<point x="-35" y="19" type="line"/>
			<point x="-18" y="9"/>
			<point x="22" y="0"/>
			<point x="45" y="0" type="curve" smooth="yes"/>
			<point x="116" y="0"/>
			<point x="166" y="33"/>
			<point x="241" y="129" type="curve" smooth="yes"/>
			<point x="443" y="390" type="line"/>
			<point x="443" y="531" type="line"/>
			<point x="182" y="193" type="line" smooth="yes"/>
			<point x="118" y="110"/>
			<point x="86" y="90"/>
			<point x="24" y="90" type="curve" smooth="yes"/>
			<point x="-35" y="90" type="line"/>
		</contour>
	</outline>
	<anchor name="top" x="340" y="714"/>
</glyph>
<glyph name="da-rohg.init" format="2">
	<advance width="444"/>
	<outline>
		<contour>
			<point x="-35" y="19" type="line"/>
			<point x="-18" y="9"/>
			<point x="22" y="0"/>
			<point x="45" y="0" type="curve" smooth="yes"/>
			<point x="162" y="0" type="line" smooth="yes"/>
			<point x="309" y="0"/>
			<point x="399" y="93"/>
			<point x="399" y="245" type="curve" smooth="yes"/>
			<point x="399" y="374"/>
			<point x="311" y="462"/>
			<point x="183" y="462" type="curve" smooth="yes"/>
			<point x="134" y="462"/>
			<point x="84" y="447"/>
			<point x="43" y="421" type="curve"/>
			<point x="79" y="342" type="line"/>
			<point x="113" y="363"/>
			<point x="143" y="372"/>
			<point x="178" y="372" type="curve" smooth="yes"/>
			<point x="245" y="372"/>
			<point x="292" y="320"/>
			<point x="292" y="245" type="curve" smooth="yes"/>
			<point x="292" y="145"/>
			<point x="242" y="90"/>
			<point x="152" y="90" type="curve" smooth="yes"/>
			<point x="-35" y="90" type="line"/>
		</contour>
	</outline>
	<anchor name="top" x="212" y="714"/>
</glyph>
<glyph name="dda-rohg.init" format="2">
	<advance width="749"/>
	<outline>
		<contour>
			<point x="99" y="59" type="line"/>
			<point x="205" y="59" type="line"/>
			<point x="205" y="714" type="line"/>
			<point x="99" y="714" type="line"/>
		</contour>
		<contour>
			<point x="-35" y="19" type="line"/>
			<point x="-18" y="9"/>
			<point x="22" y="0"/>
			<point x="45" y="0" type="curve" smooth="yes"/>
			<point x="419" y="0" type="line" smooth="yes"/>
			<point x="602" y="0"/>
			<point x="704" y="73"/>
			<point x="704" y="205" type="curve" smooth="yes"/>
			<point x="704" y="313"/>
			<point x="628" y="386"/>
			<point x="515" y="386" type="curve" smooth="yes"/>
			<point x="395" y="386"/>
			<point x="270" y="309"/>
			<point x="188" y="193" type="curve"/>
			<point x="188" y="85" type="line"/>
			<point x="278" y="213"/>
			<point x="401" y="295"/>
			<point x="501" y="295" type="curve" smooth="yes"/>
			<point x="563" y="295"/>
			<point x="598" y="262"/>
			<point x="598" y="204" type="curve" smooth="yes"/>
			<point x="598" y="127"/>
			<point x="534" y="90"/>
			<point x="401" y="90" type="curve" smooth="yes"/>
			<point x="-35" y="90" type="line"/>
		</contour>
		<contour>
			<point x="326" y="71" type="curve"/>
			<point x="429" y="71" type="line"/>
			<point x="440" y="96"/>
			<point x="448" y="124"/>
			<point x="448" y="152" type="curve" smooth="yes"/>
			<point x="448" y="215"/>
			<point x="415" y="269"/>
			<point x="359" y="295" type="curve"/>
			<point x="300" y="234" type="line"/>
			<point x="336" y="221"/>
			<point x="356" y="191"/>
			<point x="356" y="149" type="curve" smooth="yes"/>
			<point x="356" y="120"/>
			<point x="345" y="93"/>
		</contour>
	</outline>
	<anchor name="top" x="403" y="714"/>
</glyph>
<glyph name="ga-rohg.init" format="2">
	<advance width="665"/>
	<outline>
		<contour>
			<point x="-35" y="19" type="line"/>
			<point x="-18" y="9"/>
			<point x="22" y="0"/>
			<point x="45" y="0" type="curve" smooth="yes"/>
			<point x="126" y="0" type="line" smooth="yes"/>
			<point x="191" y="0"/>
			<point x="243" y="18"/>
			<point x="282" y="54" type="curve"/>
			<point x="246" y="54" type="line"/>
			<point x="283" y="20"/>
			<point x="342" y="0"/>
			<point x="410" y="0" type="curve" smooth="yes"/>
			<point x="641" y="0" type="line"/>
			<point x="641" y="90" type="line"/>
			<point x="423" y="90" type="line" smooth="yes"/>
			<point x="315" y="90"/>
			<point x="258" y="158"/>
			<point x="258" y="284" type="curve" smooth="yes"/>
			<point x="258" y="393"/>
			<point x="300" y="455"/>
			<point x="372" y="455" type="curve" smooth="yes"/>
			<point x="420" y="455"/>
			<point x="453" y="426"/>
			<point x="453" y="383" type="curve" smooth="yes"/>
			<point x="453" y="347"/>
			<point x="429" y="324"/>
			<point x="393" y="324" type="curve" smooth="yes"/>
			<point x="365" y="324" type="line"/>
			<point x="365" y="239" type="line"/>
			<point x="396" y="239" type="line" smooth="yes"/>
			<point x="488" y="239"/>
			<point x="551" y="299"/>
			<point x="551" y="384" type="curve" smooth="yes"/>
			<point x="551" y="476"/>
			<point x="478" y="542"/>
			<point x="373" y="542" type="curve" smooth="yes"/>
			<point x="241" y="542"/>
			<point x="152" y="437"/>
			<point x="152" y="280" type="curve" smooth="yes"/>
			<point x="152" y="195"/>
			<point x="173" y="130"/>
			<point x="216" y="86" type="curve"/>
			<point x="213" y="120" type="line"/>
			<point x="187" y="100"/>
			<point x="154" y="90"/>
			<point x="110" y="90" type="curve" smooth="yes"/>
			<point x="-35" y="90" type="line"/>
		</contour>
	</outline>
	<anchor name="top" x="352" y="714"/>
</glyph>
<glyph name="ha-rohg.init" format="2">
	<advance width="716"/>
	<outline>
		<contour>
			<point x="-35" y="19" type="line"/>
			<point x="-18" y="9"/>
			<point x="22" y="0"/>
			<point x="45" y="0" type="curve" smooth="yes"/>
			<point x="71" y="0" type="line" smooth="yes"/>
			<point x="171" y="0"/>
			<point x="249" y="26"/>
			<point x="292" y="75" type="curve"/>
			<point x="359" y="116"/>
			<point x="395" y="172"/>
			<point x="395" y="234" type="curve" smooth="yes"/>
			<point x="395" y="325"/>
			<point x="322" y="392"/>
			<point x="222" y="392" type="curve" smooth="yes"/>
			<point x="120" y="392"/>
			<point x="46" y="323"/>
			<point x="46" y="231" type="curve" smooth="yes"/>
			<point x="46" y="166"/>
			<point x="82" y="115"/>
			<point x="148" y="87" type="curve"/>
			<point x="149" y="101" type="line"/>
			<point x="124" y="91"/>
			<point x="112" y="90"/>
			<point x="68" y="90" type="curve" smooth="yes"/>
			<point x="-35" y="90" type="line"/>
		</contour>
		<contour>
			<point x="220" y="140" type="curve" smooth="yes"/>
			<point x="173" y="140"/>
			<point x="138" y="177"/>
			<point x="138" y="225" type="curve" smooth="yes"/>
			<point x="138" y="273"/>
			<point x="172" y="309"/>
			<point x="220" y="309" type="curve" smooth="yes"/>
			<point x="267" y="309"/>
			<point x="300" y="274"/>
			<point x="300" y="225" type="curve" smooth="yes"/>
			<point x="300" y="177"/>
			<point x="266" y="140"/>
		</contour>
		<contour>
			<point x="435" y="0" type="curve" smooth="yes"/>
			<point x="582" y="0"/>
			<point x="671" y="92"/>
			<point x="671" y="245" type="curve" smooth="yes"/>
			<point x="671" y="288" type="line" smooth="yes"/>
			<point x="671" y="434"/>
			<point x="586" y="532"/>
			<point x="458" y="532" type="curve" smooth="yes"/>
			<point x="358" y="532"/>
			<point x="276" y="462"/>
			<point x="242" y="349" type="curve"/>
			<point x="334" y="306" type="line"/>
			<point x="346" y="391"/>
			<point x="391" y="442"/>
			<point x="454" y="442" type="curve" smooth="yes"/>
			<point x="519" y="442"/>
			<point x="565" y="379"/>
			<point x="565" y="289" type="curve" smooth="yes"/>
			<point x="565" y="245" type="line" smooth="yes"/>
			<point x="565" y="145"/>
			<point x="514" y="90"/>
			<point x="424" y="90" type="curve" smooth="yes"/>
			<point x="374" y="90"/>
			<point x="337" y="97"/>
			<point x="280" y="119" type="curve"/>
			<point x="215" y="54" type="line"/>
			<point x="280" y="23"/>
			<point x="374" y="0"/>
		</contour>
	</outline>
	<anchor name="top" x="401" y="714"/>
</glyph>
<glyph name="ja-rohg.init" format="2">
	<advance width="594"/>
	<outline>
		<contour>
			<point x="318" y="0" type="curve" smooth="yes"/>
			<point x="445" y="0"/>
			<point x="514" y="74"/>
			<point x="514" y="209" type="curve" smooth="yes"/>
			<point x="514" y="557" type="line" smooth="yes"/>
			<point x="514" y="667"/>
			<point x="460" y="724"/>
			<point x="355" y="724" type="curve" smooth="yes"/>
			<point x="256" y="724"/>
			<point x="202" y="662"/>
			<point x="202" y="549" type="curve" smooth="yes"/>
			<point x="202" y="522" type="line"/>
			<point x="303" y="522" type="line"/>
			<point x="303" y="549" type="line" smooth="yes"/>
			<point x="303" y="610"/>
			<point x="318" y="636"/>
			<point x="353" y="636" type="curve" smooth="yes"/>
			<point x="389" y="636"/>
			<point x="408" y="610"/>
			<point x="408" y="557" type="curve" smooth="yes"/>
			<point x="408" y="211" type="line" smooth="yes"/>
			<point x="408" y="129"/>
			<point x="374" y="90"/>
			<point x="304" y="90" type="curve" smooth="yes"/>
			<point x="255" y="90"/>
			<point x="213" y="104"/>
			<point x="163" y="137" type="curve"/>
			<point x="117" y="67" type="line"/>
			<point x="184" y="20"/>
			<point x="242" y="0"/>
		</contour>
		<contour>
			<point x="-35" y="19" type="line"/>
			<point x="-18" y="9"/>
			<point x="22" y="0"/>
			<point x="45" y="0" type="curve" smooth="yes"/>
			<point x="116" y="0"/>
			<point x="166" y="33"/>
			<point x="241" y="129" type="curve" smooth="yes"/>
			<point x="443" y="390" type="line"/>
			<point x="443" y="531" type="line"/>
			<point x="182" y="193" type="line" smooth="yes"/>
			<point x="117" y="110"/>
			<point x="86" y="90"/>
			<point x="24" y="90" type="curve" smooth="yes"/>
			<point x="-35" y="90" type="line"/>
		</contour>
	</outline>
	<anchor name="top" x="343" y="714"/>
</glyph>
<glyph name="ka-rohg.init" format="2">
	<advance width="758"/>
	<outline>
		<contour>
			<point x="216" y="38" type="line"/>
			<point x="216" y="558" type="line" smooth="yes"/>
			<point x="216" y="610"/>
			<point x="231" y="634"/>
			<point x="262" y="634" type="curve" smooth="yes"/>
			<point x="291" y="634"/>
			<point x="306" y="610"/>
			<point x="306" y="558" type="curve" smooth="yes"/>
			<point x="306" y="236" type="line"/>
			<point x="412" y="301" type="line"/>
			<point x="412" y="556" type="line" smooth="yes"/>
			<point x="412" y="662"/>
			<point x="355" y="724"/>
			<point x="262" y="724" type="curve" smooth="yes"/>
			<point x="170" y="724"/>
			<point x="114" y="661"/>
			<point x="114" y="558" type="curve" smooth="yes"/>
			<point x="114" y="38" type="line"/>
		</contour>
		<contour>
			<point x="-35" y="19" type="line"/>
			<point x="-18" y="9"/>
			<point x="22" y="0"/>
			<point x="45" y="0" type="curve" smooth="yes"/>
			<point x="427" y="0" type="line" smooth="yes"/>
			<point x="611" y="0"/>
			<point x="713" y="73"/>
			<point x="713" y="205" type="curve" smooth="yes"/>
			<point x="713" y="313"/>
			<point x="636" y="386"/>
			<point x="523" y="386" type="curve" smooth="yes"/>
			<point x="399" y="386"/>
			<point x="279" y="299"/>
			<point x="206" y="194" type="curve"/>
			<point x="206" y="86" type="line"/>
			<point x="293" y="213"/>
			<point x="413" y="295"/>
			<point x="510" y="295" type="curve" smooth="yes"/>
			<point x="571" y="295"/>
			<point x="607" y="262"/>
			<point x="607" y="204" type="curve" smooth="yes"/>
			<point x="607" y="127"/>
			<point x="542" y="90"/>
			<point x="409" y="90" type="curve" smooth="yes"/>
			<point x="-35" y="90" type="line"/>
		</contour>
	</outline>
	<anchor name="top" x="266" y="714"/>
</glyph>
<glyph name="kha-rohg.init" format="2">
	<advance width="476"/>
	<outline>
		<contour>
			<point x="-35" y="19" type="line"/>
			<point x="-18" y="9"/>
			<point x="22" y="0"/>
			<point x="45" y="0" type="curve" smooth="yes"/>
			<point x="185" y="0" type="line" smooth="yes"/>
			<point x="339" y="0"/>
			<point x="436" y="97"/>
			<point x="436" y="250" type="curve" smooth="yes"/>
			<point x="436" y="392"/>
			<point x="343" y="482"/>
			<point x="194" y="482" type="curve" smooth="yes"/>
			<point x="165" y="482" type="line"/>
			<point x="183" y="436" type="line"/>
			<point x="215" y="463" type="line"/>
			<point x="346" y="564" type="line"/>
			<point x="466" y="658" type="line"/>
			<point x="407" y="735" type="line"/>
			<point x="91" y="476" type="line"/>
			<point x="91" y="402" type="line"/>
			<point x="158" y="402" type="line" smooth="yes"/>
			<point x="273" y="402"/>
			<point x="330" y="351"/>
			<point x="330" y="250" type="curve" smooth="yes"/>
			<point x="330" y="149"/>
			<point x="273" y="90"/>
			<point x="175" y="90" type="curve" smooth="yes"/>
			<point x="-35" y="90" type="line"/>
		</contour>
	</outline>
	<anchor name="top" x="254" y="714"/>
</glyph>
<glyph name="kinnawa-rohg.init" format="2">
	<advance width="556"/>
	<outline>
		<contour>
			<point x="-35" y="19" type="line"/>
			<point x="-18" y="9"/>
			<point x="22" y="0"/>
			<point x="45" y="0" type="curve" smooth="yes"/>
			<point x="225" y="0" type="line" smooth="yes"/>
			<point x="387" y="0"/>
			<point x="476" y="101"/>
			<point x="476" y="285" type="curve" smooth="yes"/>
			<point x="476" y="591" type="line" smooth="yes"/>
			<point x="476" y="677"/>
			<point x="429" y="724"/>
			<point x="346" y="724" type="curve" smooth="yes"/>
			<point x="325" y="724"/>
			<point x="300" y="720"/>
			<point x="198" y="701" type="curve" smooth="yes"/>
			<point x="97" y="682"/>
			<point x="42" y="630"/>
			<point x="42" y="554" type="curve" smooth="yes"/>
			<point x="42" y="478"/>
			<point x="99" y="425"/>
			<point x="180" y="425" type="curve" smooth="yes"/>
			<point x="262" y="425"/>
			<point x="319" y="479"/>
			<point x="319" y="556" type="curve" smooth="yes"/>
			<point x="319" y="603"/>
			<point x="292" y="637"/>
			<point x="247" y="650" type="curve"/>
			<point x="269" y="621" type="line"/>
			<point x="296" y="628"/>
			<point x="322" y="633"/>
			<point x="331" y="633" type="curve" smooth="yes"/>
			<point x="356" y="633"/>
			<point x="370" y="619"/>
			<point x="370" y="593" type="curve" smooth="yes"/>
			<point x="370" y="286" type="line" smooth="yes"/>
			<point x="370" y="155"/>
			<point x="319" y="90"/>
			<point x="215" y="90" type="curve" smooth="yes"/>
			<point x="-35" y="90" type="line"/>
		</contour>
		<contour>
			<point x="182" y="503" type="curve" smooth="yes"/>
			<point x="151" y="503"/>
			<point x="130" y="524"/>
			<point x="130" y="554" type="curve" smooth="yes"/>
			<point x="130" y="585"/>
			<point x="152" y="608"/>
			<point x="182" y="608" type="curve" smooth="yes"/>
			<point x="212" y="608"/>
			<point x="234" y="585"/>
			<point x="234" y="555" type="curve" smooth="yes"/>
			<point x="234" y="524"/>
			<point x="212" y="503"/>
		</contour>
	</outline>
	<anchor name="top" x="250" y="714"/>
</glyph>
<glyph name="la-rohg.init" format="2">
	<advance width="406"/>
	<outline>
		<contour>
			<point x="-35" y="19" type="line"/>
			<point x="-18" y="9"/>
			<point x="21" y="0"/>
			<point x="45" y="0" type="curve" smooth="yes"/>
			<point x="75" y="0" type="line" smooth="yes"/>
			<point x="237" y="0"/>
			<point x="326" y="101"/>
			<point x="326" y="285" type="curve" smooth="yes"/>
			<point x="326" y="714" type="line"/>
			<point x="220" y="714" type="line"/>
			<point x="220" y="286" type="line" smooth="yes"/>
			<point x="220" y="155"/>
			<point x="169" y="90"/>
			<point x="65" y="90" type="curve" smooth="yes"/>
			<point x="-35" y="90" type="line"/>
		</contour>
	</outline>
	<anchor name="top" x="273" y="714"/>
</glyph>
<glyph name="ma-rohg.init" format="2">
	<advance width="512"/>
	<outline>
		<contour>
			<point x="-35" y="19" type="line"/>
			<point x="-18" y="9"/>
			<point x="20" y="0"/>
			<point x="45" y="0" type="curve" smooth="yes"/>
			<point x="111" y="0"/>
			<point x="166" y="31"/>
			<point x="196" y="79" type="curve"/>
			<point x="225" y="172" type="line" smooth="yes"/>
			<point x="251" y="256"/>
			<point x="273" y="285"/>
			<point x="311" y="285" type="curve" smooth="yes"/>
			<point x="355" y="285"/>
			<point x="381" y="249"/>
			<point x="381" y="188" type="curve" smooth="yes"/>
			<point x="381" y="123"/>
			<point x="354" y="89"/>
			<point x="304" y="89" type="curve" smooth="yes"/>
			<point x="257" y="89"/>
			<point x="219" y="113"/>
			<point x="197" y="158" type="curve"/>
			<point x="154" y="65" type="line"/>
			<point x="207" y="17"/>
			<point x="247" y="0"/>
			<point x="308" y="0" type="curve" smooth="yes"/>
			<point x="420" y="0"/>
			<point x="482" y="67"/>
			<point x="482" y="187" type="curve" smooth="yes"/>
			<point x="482" y="302"/>
			<point x="417" y="374"/>
			<point x="313" y="374" type="curve" smooth="yes"/>
			<point x="224" y="374"/>
			<point x="173" y="326"/>
			<point x="137" y="208" type="curve" smooth="yes"/>
			<point x="125" y="170" type="line" smooth="yes"/>
			<point x="104" y="103"/>
			<point x="85" y="90"/>
			<point x="9" y="90" type="curve" smooth="yes"/>
			<point x="-35" y="90" type="line"/>
		</contour>
	</outline>
	<anchor name="top" x="320" y="714"/>
</glyph>
<glyph name="na-rohg.init" format="2">
	<advance width="776"/>
	<outline>
		<contour>
			<point x="339" y="0" type="curve" smooth="yes"/>
			<point x="447" y="0"/>
			<point x="517" y="68"/>
			<point x="517" y="174" type="curve" smooth="yes"/>
			<point x="517" y="284"/>
			<point x="448" y="353"/>
			<point x="338" y="353" type="curve" smooth="yes"/>
			<point x="291" y="353"/>
			<point x="254" y="343"/>
			<point x="198" y="314" type="curve"/>
			<point x="230" y="231" type="line"/>
			<point x="262" y="255"/>
			<point x="290" y="265"/>
			<point x="325" y="265" type="curve" smooth="yes"/>
			<point x="380" y="265"/>
			<point x="412" y="231"/>
			<point x="412" y="175" type="curve" smooth="yes"/>
			<point x="412" y="123"/>
			<point x="381" y="89"/>
			<point x="334" y="89" type="curve" smooth="yes"/>
			<point x="288" y="89"/>
			<point x="251" y="112"/>
			<point x="228" y="158" type="curve"/>
			<point x="186" y="65" type="line"/>
			<point x="238" y="17"/>
			<point x="279" y="0"/>
		</contour>
		<contour>
			<point x="-35" y="19" type="line"/>
			<point x="-18" y="9"/>
			<point x="22" y="0"/>
			<point x="45" y="0" type="curve" smooth="yes"/>
			<point x="57" y="0" type="line" smooth="yes"/>
			<point x="198" y="0"/>
			<point x="266" y="101"/>
			<point x="266" y="285" type="curve" smooth="yes"/>
			<point x="266" y="404" type="line" smooth="yes"/>
			<point x="266" y="510"/>
			<point x="324" y="568"/>
			<point x="428" y="568" type="curve" smooth="yes"/>
			<point x="532" y="568"/>
			<point x="590" y="510"/>
			<point x="590" y="404" type="curve" smooth="yes"/>
			<point x="590" y="0" type="line"/>
			<point x="696" y="0" type="line"/>
			<point x="696" y="408" type="line" smooth="yes"/>
			<point x="696" y="565"/>
			<point x="595" y="660"/>
			<point x="428" y="660" type="curve" smooth="yes"/>
			<point x="261" y="660"/>
			<point x="160" y="565"/>
			<point x="160" y="408" type="curve" smooth="yes"/>
			<point x="160" y="286" type="line" smooth="yes"/>
			<point x="160" y="155"/>
			<point x="129" y="90"/>
			<point x="47" y="90" type="curve" smooth="yes"/>
			<point x="-35" y="90" type="line"/>
		</contour>
	</outline>
	<anchor name="top" x="428" y="714"/>
</glyph>
<glyph name="nga-rohg.init" format="2">
	<advance width="683"/>
	<outline>
		<contour>
			<point x="318" y="0" type="curve" smooth="yes"/>
			<point x="445" y="0"/>
			<point x="514" y="74"/>
			<point x="514" y="209" type="curve" smooth="yes"/>
			<point x="514" y="714" type="line"/>
			<point x="408" y="714" type="line"/>
			<point x="408" y="211" type="line" smooth="yes"/>
			<point x="408" y="129"/>
			<point x="374" y="90"/>
			<point x="304" y="90" type="curve" smooth="yes"/>
			<point x="255" y="90"/>
			<point x="213" y="104"/>
			<point x="163" y="137" type="curve"/>
			<point x="117" y="67" type="line"/>
			<point x="184" y="20"/>
			<point x="242" y="0"/>
		</contour>
		<contour>
			<point x="-35" y="19" type="line"/>
			<point x="-18" y="9"/>
			<point x="22" y="0"/>
			<point x="45" y="0" type="curve" smooth="yes"/>
			<point x="111" y="0"/>
			<point x="165" y="33"/>
			<point x="240" y="117" type="curve" smooth="yes"/>
			<point x="454" y="345" type="line"/>
			<point x="487" y="361" type="line"/>
			<point x="673" y="537" type="line"/>
			<point x="609" y="605" type="line"/>
			<point x="478" y="480" type="line"/>
			<point x="448" y="459" type="line"/>
			<point x="186" y="185" type="line" smooth="yes"/>
			<point x="116" y="111"/>
			<point x="76" y="90"/>
			<point x="9" y="90" type="curve" smooth="yes"/>
			<point x="-35" y="90" type="line"/>
		</contour>
	</outline>
	<anchor name="top" x="343" y="714"/>
</glyph>
<glyph name="nya-rohg.init" format="2">
	<advance width="513"/>
	<outline>
		<contour>
			<point x="-35" y="19" type="line"/>
			<point x="-18" y="9"/>
			<point x="22" y="0"/>
			<point x="45" y="0" type="curve" smooth="yes"/>
			<point x="75" y="0" type="line" smooth="yes"/>
			<point x="237" y="0"/>
			<point x="327" y="101"/>
			<point x="327" y="285" type="curve" smooth="yes"/>
			<point x="327" y="714" type="line"/>
			<point x="221" y="714" type="line"/>
			<point x="221" y="286" type="line" smooth="yes"/>
			<point x="221" y="155"/>
			<point x="170" y="90"/>
			<point x="65" y="90" type="curve" smooth="yes"/>
			<point x="-35" y="90" type="line"/>
		</contour>
		<contour>
			<point x="406" y="353" type="line"/>
			<point x="503" y="353" type="line"/>
			<point x="503" y="416" type="line" smooth="yes"/>
			<point x="503" y="495"/>
			<point x="458" y="539"/>
			<point x="378" y="539" type="curve" smooth="yes"/>
			<point x="281" y="539" type="line"/>
			<point x="281" y="452" type="line"/>
			<point x="364" y="452" type="line" smooth="yes"/>
			<point x="391" y="452"/>
			<point x="406" y="438"/>
			<point x="406" y="412" type="curve" smooth="yes"/>
		</contour>
	</outline>
	<anchor name="top" x="274" y="714"/>
</glyph>
<glyph name="ovowel-rohg.init" format="2">
	<advance width="502"/>
	<outline>
		<contour>
			<point x="-35" y="19" type="line"/>
			<point x="-18" y="9"/>
			<point x="22" y="0"/>
			<point x="45" y="0" type="curve" smooth="yes"/>
			<point x="249" y="0" type="line" smooth="yes"/>
			<point x="386" y="0"/>
			<point x="457" y="54"/>
			<point x="457" y="156" type="curve" smooth="yes"/>
			<point x="457" y="239"/>
			<point x="406" y="284"/>
			<point x="305" y="296" type="curve"/>
			<point x="277" y="259" type="line"/>
			<point x="365" y="266"/>
			<point x="421" y="318"/>
			<point x="421" y="393" type="curve" smooth="yes"/>
			<point x="421" y="481"/>
			<point x="360" y="536"/>
			<point x="261" y="536" type="curve" smooth="yes"/>
			<point x="157" y="536"/>
			<point x="95" y="472"/>
			<point x="95" y="364" type="curve" smooth="yes"/>
			<point x="95" y="40" type="line"/>
			<point x="199" y="40" type="line"/>
			<point x="199" y="364" type="line" smooth="yes"/>
			<point x="199" y="421"/>
			<point x="217" y="447"/>
			<point x="258" y="447" type="curve" smooth="yes"/>
			<point x="297" y="447"/>
			<point x="317" y="425"/>
			<point x="317" y="380" type="curve" smooth="yes"/>
			<point x="317" y="345"/>
			<point x="290" y="318"/>
			<point x="248" y="312" type="curve"/>
			<point x="248" y="234" type="line"/>
			<point x="259" y="234" type="line" smooth="yes"/>
			<point x="322" y="234"/>
			<point x="353" y="211"/>
			<point x="353" y="162" type="curve" smooth="yes"/>
			<point x="353" y="112"/>
			<point x="324" y="90"/>
			<point x="259" y="90" type="curve" smooth="yes"/>
			<point x="-35" y="90" type="line"/>
		</contour>
	</outline>
	<anchor name="top" x="257" y="714"/>
</glyph>
<glyph name="pa-rohg.init" format="2">
	<advance width="419"/>
	<outline>
		<contour>
			<point x="-35" y="19" type="line"/>
			<point x="-18" y="9"/>
			<point x="22" y="0"/>
			<point x="45" y="0" type="curve" smooth="yes"/>
			<point x="123" y="0" type="line" smooth="yes"/>
			<point x="288" y="0"/>
			<point x="374" y="97"/>
			<point x="374" y="285" type="curve" smooth="yes"/>
			<point x="374" y="357" type="line" smooth="yes"/>
			<point x="374" y="468"/>
			<point x="307" y="542"/>
			<point x="205" y="542" type="curve" smooth="yes"/>
			<point x="114" y="542"/>
			<point x="47" y="479"/>
			<point x="47" y="394" type="curve" smooth="yes"/>
			<point x="47" y="305"/>
			<point x="119" y="243"/>
			<point x="244" y="243" type="curve" smooth="yes"/>
			<point x="294" y="243" type="line"/>
			<point x="294" y="327" type="line"/>
			<point x="247" y="327" type="line" smooth="yes"/>
			<point x="182" y="327"/>
			<point x="145" y="352"/>
			<point x="145" y="396" type="curve" smooth="yes"/>
			<point x="145" y="430"/>
			<point x="171" y="458"/>
			<point x="204" y="458" type="curve" smooth="yes"/>
			<point x="246" y="458"/>
			<point x="271" y="419"/>
			<point x="271" y="357" type="curve" smooth="yes"/>
			<point x="271" y="286" type="line" smooth="yes"/>
			<point x="271" y="156"/>
			<point x="217" y="90"/>
			<point x="113" y="90" type="curve" smooth="yes"/>
			<point x="-35" y="90" type="line"/>
		</contour>
	</outline>
	<anchor name="top" x="210" y="714"/>
</glyph>
<glyph name="ra-rohg.init" format="2">
	<advance width="558"/>
	<outline>
		<contour>
			<point x="-35" y="19" type="line"/>
			<point x="-18" y="9"/>
			<point x="22" y="0"/>
			<point x="45" y="0" type="curve" smooth="yes"/>
			<point x="92" y="0" type="line" smooth="yes"/>
			<point x="254" y="0"/>
			<point x="343" y="101"/>
			<point x="343" y="285" type="curve" smooth="yes"/>
			<point x="343" y="445" type="line"/>
			<point x="339" y="455" type="line"/>
			<point x="339" y="567" type="line" smooth="yes"/>
			<point x="339" y="613"/>
			<point x="361" y="640"/>
			<point x="397" y="640" type="curve" smooth="yes"/>
			<point x="431" y="640"/>
			<point x="450" y="614"/>
			<point x="450" y="580" type="curve" smooth="yes"/>
			<point x="450" y="538"/>
			<point x="420" y="513"/>
			<point x="369" y="513" type="curve" smooth="yes"/>
			<point x="275" y="513" type="line"/>
			<point x="265" y="517" type="line"/>
			<point x="130" y="517" type="line"/>
			<point x="130" y="430" type="line"/>
			<point x="371" y="430" type="line" smooth="yes"/>
			<point x="476" y="430"/>
			<point x="548" y="491"/>
			<point x="548" y="581" type="curve" smooth="yes"/>
			<point x="548" y="664"/>
			<point x="486" y="724"/>
			<point x="397" y="724" type="curve" smooth="yes"/>
			<point x="304" y="724"/>
			<point x="237" y="658"/>
			<point x="237" y="564" type="curve" smooth="yes"/>
			<point x="237" y="286" type="line" smooth="yes"/>
			<point x="237" y="155"/>
			<point x="186" y="90"/>
			<point x="82" y="90" type="curve" smooth="yes"/>
			<point x="-35" y="90" type="line"/>
		</contour>
	</outline>
	<anchor name="top" x="358" y="714"/>
</glyph>
<glyph name="rra-rohg.init" format="2">
	<advance width="769"/>
	<outline>
		<contour>
			<point x="151" y="49" type="line"/>
			<point x="257" y="49" type="line"/>
			<point x="257" y="452" type="line"/>
			<point x="253" y="462" type="line"/>
			<point x="253" y="567" type="line" smooth="yes"/>
			<point x="253" y="613"/>
			<point x="275" y="640"/>
			<point x="311" y="640" type="curve" smooth="yes"/>
			<point x="345" y="640"/>
			<point x="364" y="614"/>
			<point x="364" y="580" type="curve" smooth="yes"/>
			<point x="364" y="538"/>
			<point x="334" y="513"/>
			<point x="283" y="513" type="curve" smooth="yes"/>
			<point x="189" y="513" type="line"/>
			<point x="179" y="517" type="line"/>
			<point x="44" y="517" type="line"/>
			<point x="44" y="430" type="line"/>
			<point x="285" y="430" type="line" smooth="yes"/>
			<point x="390" y="430"/>
			<point x="462" y="491"/>
			<point x="462" y="581" type="curve" smooth="yes"/>
			<point x="462" y="664"/>
			<point x="400" y="724"/>
			<point x="311" y="724" type="curve" smooth="yes"/>
			<point x="218" y="724"/>
			<point x="151" y="658"/>
			<point x="151" y="564" type="curve" smooth="yes"/>
		</contour>
		<contour>
			<point x="-35" y="19" type="line"/>
			<point x="-18" y="9"/>
			<point x="22" y="0"/>
			<point x="45" y="0" type="curve" smooth="yes"/>
			<point x="439" y="0" type="line" smooth="yes"/>
			<point x="622" y="0"/>
			<point x="724" y="73"/>
			<point x="724" y="205" type="curve" smooth="yes"/>
			<point x="724" y="313"/>
			<point x="648" y="386"/>
			<point x="535" y="386" type="curve" smooth="yes"/>
			<point x="413" y="386"/>
			<point x="292" y="284"/>
			<point x="217" y="153" type="curve"/>
			<point x="217" y="43" type="line"/>
			<point x="305" y="196"/>
			<point x="424" y="295"/>
			<point x="521" y="295" type="curve" smooth="yes"/>
			<point x="583" y="295"/>
			<point x="618" y="262"/>
			<point x="618" y="204" type="curve" smooth="yes"/>
			<point x="618" y="127"/>
			<point x="554" y="90"/>
			<point x="421" y="90" type="curve" smooth="yes"/>
			<point x="-35" y="90" type="line"/>
		</contour>
	</outline>
	<anchor name="top" x="438" y="714"/>
</glyph>
<glyph name="sa-rohg.init" format="2">
	<advance width="499"/>
	<outline>
		<contour>
			<point x="-35" y="19" type="line"/>
			<point x="-18" y="9"/>
			<point x="22" y="0"/>
			<point x="45" y="0" type="curve" smooth="yes"/>
			<point x="203" y="0" type="line" smooth="yes"/>
			<point x="369" y="0"/>
			<point x="454" y="97"/>
			<point x="454" y="289" type="curve" smooth="yes"/>
			<point x="454" y="444"/>
			<point x="372" y="542"/>
			<point x="241" y="542" type="curve" smooth="yes"/>
			<point x="135" y="542"/>
			<point x="54" y="472"/>
			<point x="54" y="380" type="curve" smooth="yes"/>
			<point x="54" y="298"/>
			<point x="119" y="239"/>
			<point x="209" y="239" type="curve" smooth="yes"/>
			<point x="240" y="239" type="line"/>
			<point x="240" y="324" type="line"/>
			<point x="213" y="324" type="line" smooth="yes"/>
			<point x="176" y="324"/>
			<point x="153" y="347"/>
			<point x="153" y="383" type="curve" smooth="yes"/>
			<point x="153" y="425"/>
			<point x="187" y="455"/>
			<point x="236" y="455" type="curve" smooth="yes"/>
			<point x="307" y="455"/>
			<point x="348" y="393"/>
			<point x="348" y="290" type="curve" smooth="yes"/>
			<point x="348" y="154"/>
			<point x="298" y="90"/>
			<point x="193" y="90" type="curve" smooth="yes"/>
			<point x="-35" y="90" type="line"/>
		</contour>
	</outline>
	<anchor name="top" x="238" y="714"/>
</glyph>
<glyph name="sha-rohg.init" format="2">
	<advance width="712"/>
	<outline>
		<contour>
			<point x="-35" y="19" type="line"/>
			<point x="-18" y="9"/>
			<point x="22" y="0"/>
			<point x="45" y="0" type="curve" smooth="yes"/>
			<point x="69" y="0" type="line" smooth="yes"/>
			<point x="159" y="0"/>
			<point x="226" y="38"/>
			<point x="246" y="98" type="curve"/>
			<point x="227" y="101" type="line"/>
			<point x="249" y="37"/>
			<point x="318" y="0"/>
			<point x="420" y="0" type="curve" smooth="yes"/>
			<point x="584" y="0"/>
			<point x="667" y="97"/>
			<point x="667" y="289" type="curve" smooth="yes"/>
			<point x="667" y="444"/>
			<point x="585" y="542"/>
			<point x="454" y="542" type="curve" smooth="yes"/>
			<point x="349" y="542"/>
			<point x="268" y="472"/>
			<point x="268" y="380" type="curve" smooth="yes"/>
			<point x="268" y="298"/>
			<point x="332" y="239"/>
			<point x="423" y="239" type="curve" smooth="yes"/>
			<point x="454" y="239" type="line"/>
			<point x="454" y="324" type="line"/>
			<point x="427" y="324" type="line" smooth="yes"/>
			<point x="390" y="324"/>
			<point x="367" y="347"/>
			<point x="367" y="383" type="curve" smooth="yes"/>
			<point x="367" y="425"/>
			<point x="400" y="455"/>
			<point x="449" y="455" type="curve" smooth="yes"/>
			<point x="520" y="455"/>
			<point x="561" y="393"/>
			<point x="561" y="290" type="curve" smooth="yes"/>
			<point x="561" y="157"/>
			<point x="513" y="90"/>
			<point x="416" y="90" type="curve" smooth="yes"/>
			<point x="332" y="90"/>
			<point x="286" y="129"/>
			<point x="286" y="200" type="curve" smooth="yes"/>
			<point x="286" y="215" type="line"/>
			<point x="180" y="215" type="line"/>
			<point x="180" y="200" type="line" smooth="yes"/>
			<point x="180" y="127"/>
			<point x="137" y="90"/>
			<point x="53" y="90" type="curve" smooth="yes"/>
			<point x="-35" y="90" type="line"/>
		</contour>
	</outline>
	<anchor name="top" x="441" y="714"/>
</glyph>
<glyph name="ta-rohg.init" format="2">
	<advance width="456"/>
	<outline>
		<contour>
			<point x="-35" y="19" type="line"/>
			<point x="-18" y="9"/>
			<point x="22" y="0"/>
			<point x="45" y="0" type="curve" smooth="yes"/>
			<point x="125" y="0" type="line" smooth="yes"/>
			<point x="287" y="0"/>
			<point x="376" y="101"/>
			<point x="376" y="285" type="curve" smooth="yes"/>
			<point x="376" y="557" type="line" smooth="yes"/>
			<point x="376" y="665"/>
			<point x="321" y="724"/>
			<point x="217" y="724" type="curve" smooth="yes"/>
			<point x="114" y="724"/>
			<point x="63" y="666"/>
			<point x="63" y="549" type="curve" smooth="yes"/>
			<point x="63" y="515" type="line"/>
			<point x="165" y="515" type="line"/>
			<point x="165" y="549" type="line" smooth="yes"/>
			<point x="165" y="612"/>
			<point x="181" y="636"/>
			<point x="215" y="636" type="curve" smooth="yes"/>
			<point x="252" y="636"/>
			<point x="270" y="609"/>
			<point x="270" y="557" type="curve" smooth="yes"/>
			<point x="270" y="286" type="line" smooth="yes"/>
			<point x="270" y="155"/>
			<point x="219" y="90"/>
			<point x="115" y="90" type="curve" smooth="yes"/>
			<point x="-35" y="90" type="line"/>
		</contour>
	</outline>
	<anchor name="top" x="220" y="714"/>
</glyph>
<glyph name="tana-rohg.ss01" format="2">
	<outline>
		<contour>
			<point x="-147" y="858" type="line"/>
			<point x="-116" y="907"/>
			<point x="-91" y="920"/>
			<point x="-36" y="920" type="curve" smooth="yes"/>
			<point x="-13" y="920"/>
			<point x="16" y="918"/>
			<point x="78" y="910" type="curve" smooth="yes"/>
			<point x="142" y="901"/>
			<point x="183" y="898"/>
			<point x="227" y="898" type="curve" smooth="yes"/>
			<point x="317" y="898"/>
			<point x="361" y="931"/>
			<point x="394" y="1023" type="curve"/>
			<point x="319" y="1051" type="line"/>
			<point x="294" y="992"/>
			<point x="275" y="978"/>
			<point x="222" y="978" type="curve" smooth="yes"/>
			<point x="189" y="978"/>
			<point x="157" y="981"/>
			<point x="93" y="989" type="curve" smooth="yes"/>
			<point x="29" y="997"/>
			<point x="-8" y="1000"/>
			<point x="-42" y="1000" type="curve" smooth="yes"/>
			<point x="-122" y="1000"/>
			<point x="-172" y="971"/>
			<point x="-214" y="901" type="curve"/>
		</contour>
	</outline>
	<anchor name="_top" x="0" y="714"/>
	<anchor name="top" x="0" y="1003"/>
</glyph>
<glyph name="tta-rohg.init" format="2">
	<advance width="499"/>
	<outline>
		<contour>
			<point x="-35" y="19" type="line"/>
			<point x="-18" y="9"/>
			<point x="21" y="0"/>
			<point x="45" y="0" type="curve" smooth="yes"/>
			<point x="69" y="0" type="line" smooth="yes"/>
			<point x="231" y="0"/>
			<point x="320" y="101"/>
			<point x="320" y="285" type="curve" smooth="yes"/>
			<point x="320" y="583" type="line" smooth="yes"/>
			<point x="320" y="608"/>
			<point x="335" y="624"/>
			<point x="362" y="624" type="curve" smooth="yes"/>
			<point x="489" y="624" type="line"/>
			<point x="489" y="714" type="line"/>
			<point x="339" y="714" type="line" smooth="yes"/>
			<point x="259" y="714"/>
			<point x="214" y="670"/>
			<point x="214" y="591" type="curve" smooth="yes"/>
			<point x="214" y="286" type="line" smooth="yes"/>
			<point x="214" y="155"/>
			<point x="163" y="90"/>
			<point x="59" y="90" type="curve" smooth="yes"/>
			<point x="-35" y="90" type="line"/>
		</contour>
	</outline>
	<anchor name="top" x="352" y="714"/>
</glyph>
<glyph name="uvowel-rohg.init" format="2">
	<advance width="658"/>
	<outline>
		<contour>
			<point x="-35" y="19" type="line"/>
			<point x="-19" y="9"/>
			<point x="22" y="0"/>
			<point x="45" y="0" type="curve" smooth="yes"/>
			<point x="129" y="0"/>
			<point x="190" y="38"/>
			<point x="212" y="100" type="curve"/>
			<point x="191" y="98" type="line"/>
			<point x="225" y="33"/>
			<point x="284" y="0"/>
			<point x="363" y="0" type="curve" smooth="yes"/>
			<point x="377" y="0" type="line" smooth="yes"/>
			<point x="512" y="0"/>
			<point x="578" y="83"/>
			<point x="578" y="255" type="curve" smooth="yes"/>
			<point x="578" y="329" type="line"/>
			<point x="472" y="329" type="line"/>
			<point x="472" y="256" type="line" smooth="yes"/>
			<point x="472" y="137"/>
			<point x="440" y="90"/>
			<point x="361" y="90" type="curve" smooth="yes"/>
			<point x="296" y="90"/>
			<point x="257" y="130"/>
			<point x="257" y="195" type="curve" smooth="yes"/>
			<point x="257" y="329" type="line"/>
			<point x="151" y="329" type="line"/>
			<point x="151" y="256" type="line" smooth="yes"/>
			<point x="151" y="139"/>
			<point x="115" y="90"/>
			<point x="29" y="90" type="curve" smooth="yes"/>
			<point x="-35" y="90" type="line"/>
		</contour>
	</outline>
	<anchor name="top" x="363" y="714"/>
</glyph>
<glyph name="wa-rohg.init" format="2">
	<advance width="474"/>
	<outline>
		<contour>
			<point x="-35" y="19" type="line"/>
			<point x="-18" y="9"/>
			<point x="22" y="0"/>
			<point x="45" y="0" type="curve" smooth="yes"/>
			<point x="224" y="0" type="line" smooth="yes"/>
			<point x="355" y="0"/>
			<point x="429" y="69"/>
			<point x="429" y="194" type="curve" smooth="yes"/>
			<point x="429" y="305"/>
			<point x="354" y="374"/>
			<point x="231" y="374" type="curve" smooth="yes"/>
			<point x="209" y="374" type="line"/>
			<point x="234" y="329" type="line"/>
			<point x="336" y="451" type="line" smooth="yes"/>
			<point x="372" y="494"/>
			<point x="390" y="535"/>
			<point x="390" y="581" type="curve" smooth="yes"/>
			<point x="390" y="666"/>
			<point x="328" y="724"/>
			<point x="244" y="724" type="curve" smooth="yes"/>
			<point x="158" y="724"/>
			<point x="95" y="664"/>
			<point x="95" y="585" type="curve" smooth="yes"/>
			<point x="95" y="508"/>
			<point x="155" y="457"/>
			<point x="232" y="453" type="curve"/>
			<point x="233" y="466" type="line"/>
			<point x="121" y="332" type="line"/>
			<point x="156" y="293" type="line"/>
			<point x="201" y="293" type="line" smooth="yes"/>
			<point x="283" y="293"/>
			<point x="323" y="260"/>
			<point x="323" y="194" type="curve" smooth="yes"/>
			<point x="323" y="128"/>
			<point x="283" y="90"/>
			<point x="213" y="90" type="curve" smooth="yes"/>
			<point x="-35" y="90" type="line"/>
		</contour>
		<contour>
			<point x="241" y="529" type="curve" smooth="yes"/>
			<point x="208" y="529"/>
			<point x="184" y="553"/>
			<point x="184" y="585" type="curve" smooth="yes"/>
			<point x="184" y="617"/>
			<point x="209" y="643"/>
			<point x="242" y="643" type="curve" smooth="yes"/>
			<point x="273" y="643"/>
			<point x="298" y="618"/>
			<point x="298" y="585" type="curve" smooth="yes"/>
			<point x="298" y="553"/>
			<point x="274" y="529"/>
		</contour>
	</outline>
	<anchor name="top" x="236" y="714"/>
</glyph>
<glyph name="xx.connection-rohg" format="2">
	<advance width="155"/>
	<outline>
		<contour>
			<point x="199" y="0" type="line"/>
			<point x="199" y="90" type="line"/>
			<point x="162" y="90" type="line" smooth="yes"/>
			<point x="82" y="90"/>
			<point x="26" y="132"/>
			<point x="26" y="195" type="curve"/>
			<point x="-33" y="195" type="line"/>
			<point x="-33" y="170" type="line" smooth="yes"/>
			<point x="-33" y="69"/>
			<point x="46" y="0"/>
			<point x="162" y="0" type="curve" smooth="yes"/>
		</contour>
	</outline>
</glyph>
<glyph name="xx.evowelmark-rohg" format="2">
	<advance width="262"/>
	<outline>
		<contour>
			<point x="252" y="-205" type="curve"/>
			<point x="252" y="-137" type="line"/>
			<point x="178" y="-137" type="line" smooth="yes"/>
			<point x="131" y="-137"/>
			<point x="109" y="-119"/>
			<point x="109" y="-83" type="curve" smooth="yes"/>
			<point x="109" y="-53" type="line"/>
			<point x="10" y="-53" type="line"/>
			<point x="10" y="-83" type="line" smooth="yes"/>
			<point x="10" y="-173"/>
			<point x="61" y="-218"/>
			<point x="161" y="-218" type="curve" smooth="yes"/>
			<point x="169" y="-218" type="line" smooth="yes"/>
			<point x="199" y="-218"/>
			<point x="227" y="-214"/>
		</contour>
	</outline>
</glyph>
<glyph name="xx.ivowelmark-rohg" format="2">
	<advance width="262"/>
	<outline>
		<contour>
			<point x="10" y="-205" type="line"/>
			<point x="35" y="-214"/>
			<point x="63" y="-218"/>
			<point x="93" y="-218" type="curve" smooth="yes"/>
			<point x="101" y="-218" type="line" smooth="yes"/>
			<point x="201" y="-218"/>
			<point x="252" y="-173"/>
			<point x="252" y="-83" type="curve" smooth="yes"/>
			<point x="252" y="-53" type="line"/>
			<point x="153" y="-53" type="line"/>
			<point x="153" y="-83" type="line" smooth="yes"/>
			<point x="153" y="-119"/>
			<point x="130" y="-137"/>
			<point x="84" y="-137" type="curve" smooth="yes"/>
			<point x="10" y="-137" type="line"/>
		</contour>
	</outline>
</glyph>
<glyph name="xx.singledot-rohg" format="2">
	<advance width="138"/>
	<outline>
		<contour>
			<point x="69" y="421" type="curve" smooth="yes"/>
			<point x="106" y="421"/>
			<point x="128" y="445"/>
			<point x="128" y="485" type="curve" smooth="yes"/>
			<point x="128" y="525"/>
			<point x="106" y="548"/>
			<point x="69" y="548" type="curve" smooth="yes"/>
			<point x="32" y="548"/>
			<point x="10" y="525"/>
			<point x="10" y="485" type="curve" smooth="yes"/>
			<point x="10" y="445"/>
			<point x="32" y="421"/>
		</contour>
	</outline>
</glyph>
<glyph name="xx.tripledot-rohg" format="2">
	<advance width="310"/>
	<outline>
		<contour>
			<point x="67" y="599" type="curve" smooth="yes"/>
			<point x="103" y="599"/>
			<point x="125" y="622"/>
			<point x="125" y="660" type="curve" smooth="yes"/>
			<point x="125" y="699"/>
			<point x="103" y="722"/>
			<point x="67" y="722" type="curve" smooth="yes"/>
			<point x="32" y="722"/>
			<point x="10" y="699"/>
			<point x="10" y="660" type="curve" smooth="yes"/>
			<point x="10" y="622"/>
			<point x="32" y="599"/>
		</contour>
		<contour>
			<point x="242" y="599" type="curve" smooth="yes"/>
			<point x="278" y="599"/>
			<point x="300" y="622"/>
			<point x="300" y="660" type="curve" smooth="yes"/>
			<point x="300" y="699"/>
			<point x="278" y="722"/>
			<point x="242" y="722" type="curve" smooth="yes"/>
			<point x="207" y="722"/>
			<point x="185" y="699"/>
			<point x="185" y="660" type="curve" smooth="yes"/>
			<point x="185" y="622"/>
			<point x="207" y="599"/>
		</contour>
		<contour>
			<point x="155" y="738" type="curve" smooth="yes"/>
			<point x="190" y="738"/>
			<point x="211" y="761"/>
			<point x="211" y="798" type="curve" smooth="yes"/>
			<point x="211" y="836"/>
			<point x="190" y="858"/>
			<point x="155" y="858" type="curve" smooth="yes"/>
			<point x="120" y="858"/>
			<point x="99" y="836"/>
			<point x="99" y="798" type="curve" smooth="yes"/>
			<point x="99" y="761"/>
			<point x="120" y="738"/>
		</contour>
	</outline>
</glyph>
<glyph name="ya-rohg.init" format="2">
	<advance width="492"/>
	<outline>
		<contour>
			<point x="-35" y="19" type="line"/>
			<point x="-18" y="9"/>
			<point x="22" y="0"/>
			<point x="45" y="0" type="curve" smooth="yes"/>
			<point x="125" y="0" type="line" smooth="yes"/>
			<point x="287" y="0"/>
			<point x="376" y="101"/>
			<point x="376" y="285" type="curve" smooth="yes"/>
			<point x="376" y="546" type="line" smooth="yes"/>
			<point x="376" y="654"/>
			<point x="312" y="724"/>
			<point x="213" y="724" type="curve" smooth="yes"/>
			<point x="122" y="724"/>
			<point x="57" y="662"/>
			<point x="57" y="578" type="curve" smooth="yes"/>
			<point x="57" y="491"/>
			<point x="125" y="431"/>
			<point x="245" y="431" type="curve" smooth="yes"/>
			<point x="482" y="431" type="line"/>
			<point x="482" y="519" type="line"/>
			<point x="329" y="519" type="line"/>
			<point x="318" y="515" type="line"/>
			<point x="246" y="515" type="line" smooth="yes"/>
			<point x="188" y="515"/>
			<point x="154" y="539"/>
			<point x="154" y="580" type="curve" smooth="yes"/>
			<point x="154" y="614"/>
			<point x="179" y="640"/>
			<point x="211" y="640" type="curve" smooth="yes"/>
			<point x="250" y="640"/>
			<point x="274" y="605"/>
			<point x="274" y="550" type="curve" smooth="yes"/>
			<point x="274" y="456" type="line"/>
			<point x="270" y="446" type="line"/>
			<point x="270" y="286" type="line" smooth="yes"/>
			<point x="270" y="155"/>
			<point x="219" y="90"/>
			<point x="115" y="90" type="curve" smooth="yes"/>
			<point x="-35" y="90" type="line"/>
		</contour>
	</outline>
	<anchor name="top" x="212" y="714"/>
</glyph>
<glyph name="za-rohg.init" format="2">
	<advance width="642"/>
	<outline>
		<contour>
			<point x="-35" y="19" type="line"/>
			<point x="-18" y="9"/>
			<point x="21" y="0"/>
			<point x="44" y="0" type="curve" smooth="yes"/>
			<point x="132" y="0" type="line" smooth="yes"/>
			<point x="322" y="0"/>
			<point x="428" y="101"/>
			<point x="428" y="285" type="curve" smooth="yes"/>
			<point x="428" y="556" type="line" smooth="yes"/>
			<point x="428" y="662"/>
			<point x="372" y="724"/>
			<point x="279" y="724" type="curve" smooth="yes"/>
			<point x="187" y="724"/>
			<point x="130" y="661"/>
			<point x="130" y="558" type="curve" smooth="yes"/>
			<point x="130" y="248" type="line" smooth="yes"/>
			<point x="130" y="97"/>
			<point x="228" y="0"/>
			<point x="382" y="0" type="curve" smooth="yes"/>
			<point x="430" y="0" type="line" smooth="yes"/>
			<point x="561" y="0"/>
			<point x="632" y="73"/>
			<point x="632" y="209" type="curve" smooth="yes"/>
			<point x="632" y="236" type="line"/>
			<point x="526" y="236" type="line"/>
			<point x="526" y="211" type="line" smooth="yes"/>
			<point x="526" y="129"/>
			<point x="495" y="90"/>
			<point x="430" y="90" type="curve" smooth="yes"/>
			<point x="378" y="90" type="line" smooth="yes"/>
			<point x="287" y="90"/>
			<point x="233" y="149"/>
			<point x="233" y="248" type="curve" smooth="yes"/>
			<point x="233" y="558" type="line" smooth="yes"/>
			<point x="233" y="610"/>
			<point x="248" y="634"/>
			<point x="278" y="634" type="curve" smooth="yes"/>
			<point x="308" y="634"/>
			<point x="322" y="610"/>
			<point x="322" y="558" type="curve" smooth="yes"/>
			<point x="322" y="286" type="line" smooth="yes"/>
			<point x="322" y="151"/>
			<point x="265" y="90"/>
			<point x="140" y="90" type="curve" smooth="yes"/>
			<point x="-35" y="90" type="line"/>
		</contour>
	</outline>
	<anchor name="top" x="279" y="714"/>
</glyph>
